<mxfile host="app.diagrams.net" modified="2023-06-17T05:19:13.315Z" agent="Mozilla/5.0 (X11; Linux x86_64) AppleWebKit/537.36 (KHTML, like Gecko) Chrome/114.0.0.0 Safari/537.36" etag="3MWuCRK4dVNnl915DUrB" version="21.3.5" type="onedrive">
  <diagram id="C5RBs43oDa-KdzZeNtuy" name="Page-1">
    <mxGraphModel grid="1" page="1" gridSize="10" guides="1" tooltips="1" connect="1" arrows="1" fold="1" pageScale="1" pageWidth="827" pageHeight="1169" math="0" shadow="0">
      <root>
        <mxCell id="WIyWlLk6GJQsqaUBKTNV-0" />
        <mxCell id="WIyWlLk6GJQsqaUBKTNV-1" parent="WIyWlLk6GJQsqaUBKTNV-0" />
        <mxCell id="WIyWlLk6GJQsqaUBKTNV-2" value="" style="rounded=0;html=1;jettySize=auto;orthogonalLoop=1;fontSize=11;endArrow=block;endFill=0;endSize=8;strokeWidth=1;shadow=0;labelBackgroundColor=none;edgeStyle=orthogonalEdgeStyle;" edge="1" parent="WIyWlLk6GJQsqaUBKTNV-1" source="WIyWlLk6GJQsqaUBKTNV-3">
          <mxGeometry relative="1" as="geometry">
            <mxPoint x="220" y="170" as="targetPoint" />
          </mxGeometry>
        </mxCell>
        <mxCell id="WIyWlLk6GJQsqaUBKTNV-3" value="mezclar las cards" style="rounded=1;whiteSpace=wrap;html=1;fontSize=12;glass=0;strokeWidth=1;shadow=0;" vertex="1" parent="WIyWlLk6GJQsqaUBKTNV-1">
          <mxGeometry x="160" y="80" width="120" height="40" as="geometry" />
        </mxCell>
        <mxCell id="PFqmiB2B44m-AlX9EvXS-32" style="edgeStyle=orthogonalEdgeStyle;rounded=0;orthogonalLoop=1;jettySize=auto;html=1;exitX=0.5;exitY=1;exitDx=0;exitDy=0;entryX=0.5;entryY=0;entryDx=0;entryDy=0;" edge="1" parent="WIyWlLk6GJQsqaUBKTNV-1" source="PFqmiB2B44m-AlX9EvXS-0" target="PFqmiB2B44m-AlX9EvXS-31">
          <mxGeometry relative="1" as="geometry" />
        </mxCell>
        <mxCell id="PFqmiB2B44m-AlX9EvXS-0" value="click en la card" style="rounded=1;whiteSpace=wrap;html=1;" vertex="1" parent="WIyWlLk6GJQsqaUBKTNV-1">
          <mxGeometry x="160" y="170" width="120" height="60" as="geometry" />
        </mxCell>
        <mxCell id="PFqmiB2B44m-AlX9EvXS-9" value="" style="edgeStyle=orthogonalEdgeStyle;rounded=0;orthogonalLoop=1;jettySize=auto;html=1;" edge="1" parent="WIyWlLk6GJQsqaUBKTNV-1" source="PFqmiB2B44m-AlX9EvXS-1" target="PFqmiB2B44m-AlX9EvXS-8">
          <mxGeometry relative="1" as="geometry" />
        </mxCell>
        <mxCell id="PFqmiB2B44m-AlX9EvXS-19" value="" style="edgeStyle=orthogonalEdgeStyle;rounded=0;orthogonalLoop=1;jettySize=auto;html=1;" edge="1" parent="WIyWlLk6GJQsqaUBKTNV-1" source="PFqmiB2B44m-AlX9EvXS-1" target="PFqmiB2B44m-AlX9EvXS-18">
          <mxGeometry relative="1" as="geometry" />
        </mxCell>
        <mxCell id="PFqmiB2B44m-AlX9EvXS-1" value="Existe una card activa?" style="rhombus;whiteSpace=wrap;html=1;rounded=1;" vertex="1" parent="WIyWlLk6GJQsqaUBKTNV-1">
          <mxGeometry x="145" y="340" width="150" height="100" as="geometry" />
        </mxCell>
        <mxCell id="PFqmiB2B44m-AlX9EvXS-11" value="" style="edgeStyle=orthogonalEdgeStyle;rounded=0;orthogonalLoop=1;jettySize=auto;html=1;" edge="1" parent="WIyWlLk6GJQsqaUBKTNV-1" source="PFqmiB2B44m-AlX9EvXS-8" target="PFqmiB2B44m-AlX9EvXS-10">
          <mxGeometry relative="1" as="geometry" />
        </mxCell>
        <mxCell id="PFqmiB2B44m-AlX9EvXS-24" value="" style="edgeStyle=orthogonalEdgeStyle;rounded=0;orthogonalLoop=1;jettySize=auto;html=1;" edge="1" parent="WIyWlLk6GJQsqaUBKTNV-1" source="PFqmiB2B44m-AlX9EvXS-8" target="PFqmiB2B44m-AlX9EvXS-23">
          <mxGeometry relative="1" as="geometry" />
        </mxCell>
        <mxCell id="PFqmiB2B44m-AlX9EvXS-8" value="La ID de la card coincide con la card actual?" style="rhombus;whiteSpace=wrap;html=1;rounded=1;" vertex="1" parent="WIyWlLk6GJQsqaUBKTNV-1">
          <mxGeometry x="330" y="340" width="140" height="100" as="geometry" />
        </mxCell>
        <mxCell id="PFqmiB2B44m-AlX9EvXS-12" style="edgeStyle=orthogonalEdgeStyle;rounded=0;orthogonalLoop=1;jettySize=auto;html=1;entryX=0;entryY=0.5;entryDx=0;entryDy=0;" edge="1" parent="WIyWlLk6GJQsqaUBKTNV-1" source="PFqmiB2B44m-AlX9EvXS-10" target="PFqmiB2B44m-AlX9EvXS-0">
          <mxGeometry relative="1" as="geometry">
            <Array as="points">
              <mxPoint x="320" y="520" />
              <mxPoint x="320" y="460" />
              <mxPoint x="100" y="460" />
              <mxPoint x="100" y="200" />
            </Array>
          </mxGeometry>
        </mxCell>
        <mxCell id="PFqmiB2B44m-AlX9EvXS-10" value="Voltear las dos cads activas" style="whiteSpace=wrap;html=1;rounded=1;" vertex="1" parent="WIyWlLk6GJQsqaUBKTNV-1">
          <mxGeometry x="340" y="490" width="120" height="60" as="geometry" />
        </mxCell>
        <mxCell id="PFqmiB2B44m-AlX9EvXS-30" style="edgeStyle=orthogonalEdgeStyle;rounded=0;orthogonalLoop=1;jettySize=auto;html=1;entryX=1;entryY=0.5;entryDx=0;entryDy=0;" edge="1" parent="WIyWlLk6GJQsqaUBKTNV-1" source="PFqmiB2B44m-AlX9EvXS-15" target="PFqmiB2B44m-AlX9EvXS-0">
          <mxGeometry relative="1" as="geometry">
            <Array as="points">
              <mxPoint x="480" y="440" />
              <mxPoint x="480" y="200" />
            </Array>
          </mxGeometry>
        </mxCell>
        <mxCell id="PFqmiB2B44m-AlX9EvXS-15" value="Dejar las dos cards volteadas" style="whiteSpace=wrap;html=1;rounded=1;" vertex="1" parent="WIyWlLk6GJQsqaUBKTNV-1">
          <mxGeometry x="520" y="470" width="120" height="60" as="geometry" />
        </mxCell>
        <mxCell id="PFqmiB2B44m-AlX9EvXS-21" value="" style="edgeStyle=orthogonalEdgeStyle;rounded=0;orthogonalLoop=1;jettySize=auto;html=1;" edge="1" parent="WIyWlLk6GJQsqaUBKTNV-1" source="PFqmiB2B44m-AlX9EvXS-18" target="PFqmiB2B44m-AlX9EvXS-20">
          <mxGeometry relative="1" as="geometry" />
        </mxCell>
        <mxCell id="PFqmiB2B44m-AlX9EvXS-18" value="Dejar la card volteada" style="whiteSpace=wrap;html=1;rounded=1;" vertex="1" parent="WIyWlLk6GJQsqaUBKTNV-1">
          <mxGeometry x="160" y="490" width="120" height="60" as="geometry" />
        </mxCell>
        <mxCell id="PFqmiB2B44m-AlX9EvXS-22" style="edgeStyle=orthogonalEdgeStyle;rounded=0;orthogonalLoop=1;jettySize=auto;html=1;" edge="1" parent="WIyWlLk6GJQsqaUBKTNV-1" source="PFqmiB2B44m-AlX9EvXS-20">
          <mxGeometry relative="1" as="geometry">
            <mxPoint x="100" y="390" as="targetPoint" />
          </mxGeometry>
        </mxCell>
        <mxCell id="PFqmiB2B44m-AlX9EvXS-20" value="guardar el numero o ID de la card en un estado" style="whiteSpace=wrap;html=1;rounded=1;" vertex="1" parent="WIyWlLk6GJQsqaUBKTNV-1">
          <mxGeometry x="160" y="580" width="120" height="60" as="geometry" />
        </mxCell>
        <mxCell id="PFqmiB2B44m-AlX9EvXS-27" value="" style="edgeStyle=orthogonalEdgeStyle;rounded=0;orthogonalLoop=1;jettySize=auto;html=1;" edge="1" parent="WIyWlLk6GJQsqaUBKTNV-1" source="PFqmiB2B44m-AlX9EvXS-23" target="PFqmiB2B44m-AlX9EvXS-26">
          <mxGeometry relative="1" as="geometry" />
        </mxCell>
        <mxCell id="PFqmiB2B44m-AlX9EvXS-28" style="edgeStyle=orthogonalEdgeStyle;rounded=0;orthogonalLoop=1;jettySize=auto;html=1;exitX=0.5;exitY=1;exitDx=0;exitDy=0;entryX=0.5;entryY=0;entryDx=0;entryDy=0;" edge="1" parent="WIyWlLk6GJQsqaUBKTNV-1" source="PFqmiB2B44m-AlX9EvXS-23" target="PFqmiB2B44m-AlX9EvXS-15">
          <mxGeometry relative="1" as="geometry" />
        </mxCell>
        <mxCell id="PFqmiB2B44m-AlX9EvXS-23" value="Todas las cards están volteadas?" style="rhombus;whiteSpace=wrap;html=1;rounded=1;" vertex="1" parent="WIyWlLk6GJQsqaUBKTNV-1">
          <mxGeometry x="510" y="340" width="140" height="100" as="geometry" />
        </mxCell>
        <mxCell id="PFqmiB2B44m-AlX9EvXS-26" value="Ganamos" style="ellipse;whiteSpace=wrap;html=1;rounded=1;" vertex="1" parent="WIyWlLk6GJQsqaUBKTNV-1">
          <mxGeometry x="680" y="350" width="80" height="80" as="geometry" />
        </mxCell>
        <mxCell id="PFqmiB2B44m-AlX9EvXS-33" style="edgeStyle=orthogonalEdgeStyle;rounded=0;orthogonalLoop=1;jettySize=auto;html=1;exitX=0.5;exitY=1;exitDx=0;exitDy=0;entryX=0.5;entryY=0;entryDx=0;entryDy=0;" edge="1" parent="WIyWlLk6GJQsqaUBKTNV-1" source="PFqmiB2B44m-AlX9EvXS-31" target="PFqmiB2B44m-AlX9EvXS-1">
          <mxGeometry relative="1" as="geometry" />
        </mxCell>
        <mxCell id="PFqmiB2B44m-AlX9EvXS-31" value="Revelar el número o imagen" style="whiteSpace=wrap;html=1;rounded=1;" vertex="1" parent="WIyWlLk6GJQsqaUBKTNV-1">
          <mxGeometry x="160" y="260" width="120" height="60" as="geometry" />
        </mxCell>
      </root>
    </mxGraphModel>
  </diagram>
</mxfile>
